# xmcd
#
# Track frame offsets: 
#        150
#        13843
#        28374
#        39364
#        54222
#        68959
#        85161
#        96994
#        112813
#        120453
#
# Disc length: 1737 seconds
#
# Revision: 6
# Processed by: cddbd v1.5.2PL0 Copyright (c) Steve Scherf et al.
# Submitted via: ExactAudioCopyFreeDBPlugin 1.0
#
DISCID=7a06c70a
DTITLE=Glenn Miller Orchestra - The GLENN MILLER Orchestra
DYEAR=2000
DGENRE=Swing
TTITLE0=Little Brown Jug
TTITLE1=Pennsylvania 6-5000
TTITLE2=Chattanooga Choo Choo
TTITLE3=In The Mood
TTITLE4=Sunrise Serenade
TTITLE5=American Patrol
TTITLE6=Bugle Call Rag
TTITLE7=Tuxedo Junction
TTITLE8=Moonlight Serenade
TTITLE9=Serenade In Blue
EXTD=YEAR: 2000 ID3G: 83
EXTT0=
EXTT1=
EXTT2=
EXTT3=
EXTT4=
EXTT5=
EXTT6=
EXTT7=
EXTT8=
EXTT9=
PLAYORDER=
